<?xml version="1.0" encoding="UTF-8" standalone="no"?>
<svg xmlns="http://www.w3.org/2000/svg"
     xmlns:xlink="http://www.w3.org/1999/xlink"
     width="576px" height="432px" viewBox="0 0 576 432">
<title>gl2ps_renderer figure</title>
<desc>
Creator: GL2PS 1.4.0, (C) 1999-2017 C. Geuzaine
For: Octave
CreationDate: Sun Dec 23 21:32:45 2018
</desc>
<defs>
</defs>
<polygon fill="#ffffff" points="0,0 576,0 576,432 0,432"/>
<g>
<polygon fill="#ffffff" points="0,432 576,432 576,0 0,0" shape-rendering="crispEdges"/>
<clipPath id="cp00576432">
  <polygon points="0,432 576,432 576,0 0,0"/>
</clipPath>
<g clip-path="url(#cp00576432)">
<polygon fill="#ffffff" shape-rendering="crispEdges" points="122.04,384.48 474.12,384.48 122.04,32.4"/>
<polygon fill="#ffffff" shape-rendering="crispEdges" points="474.12,384.48 474.12,32.4 122.04,32.4"/>
<polyline fill="none" stroke="#262626" stroke-width="0.5" stroke-linecap="butt" stroke-linejoin="miter" stroke-opacity="0.15" stroke-dasharray="16,0" points="145.664,384.48 145.664,32.4"/>
<polyline fill="none" stroke="#262626" stroke-width="0.5" stroke-linecap="butt" stroke-linejoin="miter" stroke-opacity="0.15" stroke-dasharray="16,0" points="221.872,384.48 221.872,32.4"/>
<polyline fill="none" stroke="#262626" stroke-width="0.5" stroke-linecap="butt" stroke-linejoin="miter" stroke-opacity="0.15" stroke-dasharray="16,0" points="298.08,384.48 298.08,32.4"/>
<polyline fill="none" stroke="#262626" stroke-width="0.5" stroke-linecap="butt" stroke-linejoin="miter" stroke-opacity="0.15" stroke-dasharray="16,0" points="374.288,384.48 374.288,32.4"/>
<polyline fill="none" stroke="#262626" stroke-width="0.5" stroke-linecap="butt" stroke-linejoin="miter" stroke-opacity="0.15" stroke-dasharray="16,0" points="450.496,384.48 450.496,32.4"/>
<polyline fill="none" stroke="#262626" stroke-width="0.5" stroke-linecap="butt" stroke-linejoin="miter" points="145.664,384.48 145.664,380.015"/>
<polyline fill="none" stroke="#262626" stroke-width="0.5" stroke-linecap="butt" stroke-linejoin="miter" points="145.664,32.4 145.664,36.865"/>
<polyline fill="none" stroke="#262626" stroke-width="0.5" stroke-linecap="butt" stroke-linejoin="miter" points="221.872,384.48 221.872,380.015"/>
<polyline fill="none" stroke="#262626" stroke-width="0.5" stroke-linecap="butt" stroke-linejoin="miter" points="221.872,32.4 221.872,36.865"/>
<polyline fill="none" stroke="#262626" stroke-width="0.5" stroke-linecap="butt" stroke-linejoin="miter" points="298.08,384.48 298.08,380.015"/>
<polyline fill="none" stroke="#262626" stroke-width="0.5" stroke-linecap="butt" stroke-linejoin="miter" points="298.08,32.4 298.08,36.865"/>
<polyline fill="none" stroke="#262626" stroke-width="0.5" stroke-linecap="butt" stroke-linejoin="miter" points="374.288,384.48 374.288,380.015"/>
<polyline fill="none" stroke="#262626" stroke-width="0.5" stroke-linecap="butt" stroke-linejoin="miter" points="374.288,32.4 374.288,36.865"/>
<polyline fill="none" stroke="#262626" stroke-width="0.5" stroke-linecap="butt" stroke-linejoin="miter" points="450.496,384.48 450.496,380.015"/>
<polyline fill="none" stroke="#262626" stroke-width="0.5" stroke-linecap="butt" stroke-linejoin="miter" points="450.496,32.4 450.496,36.865"/>
<text fill="#262626" x="145.664" y="389.481" font-size="10" text-anchor="middle" dy="10" font-family="Helvetica">-1</text>
<text fill="#262626" x="221.872" y="389.481" font-size="10" text-anchor="middle" dy="10" font-family="Helvetica">-0.5</text>
<text fill="#262626" x="298.08" y="389.481" font-size="10" text-anchor="middle" dy="10" font-family="Helvetica">0</text>
<text fill="#262626" x="374.288" y="389.481" font-size="10" text-anchor="middle" dy="10" font-family="Helvetica">0.5</text>
<text fill="#262626" x="450.496" y="389.481" font-size="10" text-anchor="middle" dy="10" font-family="Helvetica">1</text>
<polyline fill="none" stroke="#262626" stroke-width="0.5" stroke-linecap="butt" stroke-linejoin="miter" stroke-opacity="0.15" stroke-dasharray="16,0" points="122.04,360.856 474.12,360.856"/>
<polyline fill="none" stroke="#262626" stroke-width="0.5" stroke-linecap="butt" stroke-linejoin="miter" stroke-opacity="0.15" stroke-dasharray="16,0" points="122.04,284.648 474.12,284.648"/>
<polyline fill="none" stroke="#262626" stroke-width="0.5" stroke-linecap="butt" stroke-linejoin="miter" stroke-opacity="0.15" stroke-dasharray="16,0" points="122.04,208.44 474.12,208.44"/>
<polyline fill="none" stroke="#262626" stroke-width="0.5" stroke-linecap="butt" stroke-linejoin="miter" stroke-opacity="0.15" stroke-dasharray="16,0" points="122.04,132.232 474.12,132.232"/>
<polyline fill="none" stroke="#262626" stroke-width="0.5" stroke-linecap="butt" stroke-linejoin="miter" stroke-opacity="0.15" stroke-dasharray="16,0" points="122.04,56.0244 474.12,56.0244"/>
<polyline fill="none" stroke="#262626" stroke-width="0.5" stroke-linecap="butt" stroke-linejoin="miter" points="122.04,360.856 126.505,360.856"/>
<polyline fill="none" stroke="#262626" stroke-width="0.5" stroke-linecap="butt" stroke-linejoin="miter" points="474.12,360.856 469.655,360.856"/>
<polyline fill="none" stroke="#262626" stroke-width="0.5" stroke-linecap="butt" stroke-linejoin="miter" points="122.04,284.648 126.505,284.648"/>
<polyline fill="none" stroke="#262626" stroke-width="0.5" stroke-linecap="butt" stroke-linejoin="miter" points="474.12,284.648 469.655,284.648"/>
<polyline fill="none" stroke="#262626" stroke-width="0.5" stroke-linecap="butt" stroke-linejoin="miter" points="122.04,208.44 126.505,208.44"/>
<polyline fill="none" stroke="#262626" stroke-width="0.5" stroke-linecap="butt" stroke-linejoin="miter" points="474.12,208.44 469.655,208.44"/>
<polyline fill="none" stroke="#262626" stroke-width="0.5" stroke-linecap="butt" stroke-linejoin="miter" points="122.04,132.232 126.505,132.232"/>
<polyline fill="none" stroke="#262626" stroke-width="0.5" stroke-linecap="butt" stroke-linejoin="miter" points="474.12,132.232 469.655,132.232"/>
<polyline fill="none" stroke="#262626" stroke-width="0.5" stroke-linecap="butt" stroke-linejoin="miter" points="122.04,56.0244 126.505,56.0244"/>
<polyline fill="none" stroke="#262626" stroke-width="0.5" stroke-linecap="butt" stroke-linejoin="miter" points="474.12,56.0244 469.655,56.0244"/>
<text fill="#262626" x="117.039" y="360.856" font-size="10" text-anchor="end" dy="5" font-family="Helvetica">-1</text>
<text fill="#262626" x="117.039" y="284.648" font-size="10" text-anchor="end" dy="5" font-family="Helvetica">-0.5</text>
<text fill="#262626" x="117.039" y="208.44" font-size="10" text-anchor="end" dy="5" font-family="Helvetica">0</text>
<text fill="#262626" x="117.039" y="132.232" font-size="10" text-anchor="end" dy="5" font-family="Helvetica">0.5</text>
<text fill="#262626" x="117.039" y="56.0244" font-size="10" text-anchor="end" dy="5" font-family="Helvetica">1</text>
<polyline fill="none" stroke="#262626" stroke-width="0.5" stroke-linecap="butt" stroke-linejoin="miter" stroke-dasharray="16,0" points="122.04,384.48 474.12,384.48"/>
<polyline fill="none" stroke="#262626" stroke-width="0.5" stroke-linecap="butt" stroke-linejoin="miter" stroke-dasharray="16,0" points="122.04,32.4 474.12,32.4"/>
<polyline fill="none" stroke="#262626" stroke-width="0.5" stroke-linecap="butt" stroke-linejoin="miter" stroke-dasharray="16,0" points="122.04,384.48 122.04,32.4"/>
<polyline fill="none" stroke="#262626" stroke-width="0.5" stroke-linecap="butt" stroke-linejoin="miter" stroke-dasharray="16,0" points="474.12,384.48 474.12,32.4"/>
<text fill="#262626" x="298.08" y="402.481" font-size="11" text-anchor="middle" dy="11" font-family="Helvetica">Re</text>
<text fill="#262626" x="94.0389" y="208.44" font-size="11" transform="rotate(-90, 94.0389, 208.44)" text-anchor="middle" dy="0" font-family="Helvetica">Im</text>
<polyline fill="none" stroke="#000000" stroke-width="0.5" stroke-linecap="butt" stroke-linejoin="miter" points="450.496,208.44 450.195,198.87 449.294,189.337 447.796,179.88 445.707,170.536 443.036,161.341 439.792,152.332 435.99,143.545 431.643,135.013 426.769,126.772 421.387,118.852 415.518,111.287 409.186,104.104 402.416,97.3338 395.233,91.0018 387.668,85.1332 379.748,79.7513 371.507,74.8772 362.975,70.5303 354.188,66.7276 345.179,63.4842 335.984,60.8128 326.64,58.7241 317.183,57.2263 307.65,56.3252 298.08,56.0244 288.51,56.3252 278.977,57.2263 269.52,58.7241 260.176,60.8128 250.981,63.4842 241.972,66.7276 233.185,70.5303 224.653,74.8772 216.412,79.7513 208.492,85.1332 200.927,91.0018 193.744,97.3338 186.974,104.104 180.642,111.287 174.773,118.852 169.391,126.772 164.517,135.013 160.17,143.545 156.368,152.332 153.124,161.341 150.453,170.536 148.364,179.88 146.866,189.337 145.965,198.87 145.664,208.44 145.965,218.01 146.866,227.543 148.364,237 150.453,246.344 153.124,255.539 156.368,264.548 160.17,273.335 164.517,281.867 169.391,290.108 174.773,298.028 180.642,305.593 186.974,312.776 193.744,319.546 200.927,325.878 208.492,331.747 216.412,337.129 224.653,342.003 233.185,346.35 241.972,350.152 250.981,353.396 260.176,356.067 269.52,358.156 278.977,359.654 288.51,360.555 298.08,360.856 307.65,360.555 317.183,359.654 326.64,358.156 335.984,356.067 345.179,353.396 354.188,350.152 362.975,346.35 371.507,342.003 379.748,337.129 387.668,331.747 395.233,325.878 402.416,319.546 409.186,312.776 415.518,305.593 421.387,298.028 426.769,290.108 431.643,281.867 435.99,273.335 439.792,264.548 443.036,255.539 445.707,246.344 447.796,237 449.294,227.543 450.195,218.01 450.496,208.44"/>
<polyline fill="none" stroke="#0000ff" stroke-width="0.5" stroke-linecap="butt" stroke-linejoin="miter" points="443.118,182.389 450.118,189.389"/>
<polyline fill="none" stroke="#0000ff" stroke-width="0.5" stroke-linecap="butt" stroke-linejoin="miter" points="443.118,189.389 450.118,182.389"/>
<polyline fill="none" stroke="#0000ff" stroke-width="0.5" stroke-linecap="butt" stroke-linejoin="miter" points="443.118,227.491 450.118,234.491"/>
<polyline fill="none" stroke="#0000ff" stroke-width="0.5" stroke-linecap="butt" stroke-linejoin="miter" points="443.118,234.491 450.118,227.491"/>
<polyline fill="none" stroke="#0000ff" stroke-width="0.5" stroke-linecap="butt" stroke-linejoin="miter" points="437.528,204.94 444.528,211.94"/>
<polyline fill="none" stroke="#0000ff" stroke-width="0.5" stroke-linecap="butt" stroke-linejoin="miter" points="437.528,211.94 444.528,204.94"/>
<polyline fill="none" stroke="#0000ff" stroke-width="0.5" stroke-linecap="butt" stroke-linejoin="miter" points="149.164,208.44 148.496,210.497 146.746,211.769 144.583,211.769 142.833,210.497 142.164,208.44 142.833,206.383 144.583,205.111 146.746,205.111 148.496,206.383 149.164,208.44"/>
<polyline fill="none" stroke="#0000ff" stroke-width="0.5" stroke-linecap="butt" stroke-linejoin="miter" points="451.217,179.471 450.549,181.528 448.799,182.799 446.636,182.799 444.886,181.528 444.217,179.471 444.886,177.413 446.636,176.142 448.799,176.142 450.549,177.413 451.217,179.471"/>
<polyline fill="none" stroke="#0000ff" stroke-width="0.5" stroke-linecap="butt" stroke-linejoin="miter" points="451.217,237.409 450.549,239.467 448.799,240.738 446.636,240.738 444.886,239.467 444.217,237.409 444.886,235.352 446.636,234.081 448.799,234.081 450.549,235.352 451.217,237.409"/>
<text fill="#000000" x="298.08" y="22.4" font-size="11" text-anchor="middle" dy="0" font-family="Helvetica" font-weight="bold">Nuly a póly filtra</text>
</g>
</g>
</svg>
