<?xml version="1.0" encoding="UTF-8" standalone="no"?>
<svg xmlns="http://www.w3.org/2000/svg"
     xmlns:xlink="http://www.w3.org/1999/xlink"
     width="576px" height="432px" viewBox="0 0 576 432">
<title>gl2ps_renderer figure</title>
<desc>
Creator: GL2PS 1.4.0, (C) 1999-2017 C. Geuzaine
For: Octave
CreationDate: Sun Dec 23 21:32:46 2018
</desc>
<defs>
</defs>
<polygon fill="#ffffff" points="0,0 576,0 576,432 0,432"/>
<g>
<polygon fill="#ffffff" points="0,432 576,432 576,0 0,0" shape-rendering="crispEdges"/>
<clipPath id="cp00576432">
  <polygon points="0,432 576,432 576,0 0,0"/>
</clipPath>
<g clip-path="url(#cp00576432)">
<polygon fill="#ffffff" shape-rendering="crispEdges" points="74.88,374.745 521.28,374.745 74.88,38.7777"/>
<polygon fill="#ffffff" shape-rendering="crispEdges" points="521.28,374.745 521.28,38.7777 74.88,38.7777"/>
<polyline fill="none" stroke="#262626" stroke-width="0.5" stroke-linecap="butt" stroke-linejoin="miter" stroke-opacity="0.15" stroke-dasharray="16,0" points="74.88,374.745 74.88,38.7777"/>
<polyline fill="none" stroke="#262626" stroke-width="0.5" stroke-linecap="butt" stroke-linejoin="miter" stroke-opacity="0.15" stroke-dasharray="16,0" points="186.48,374.745 186.48,38.7777"/>
<polyline fill="none" stroke="#262626" stroke-width="0.5" stroke-linecap="butt" stroke-linejoin="miter" stroke-opacity="0.15" stroke-dasharray="16,0" points="298.08,374.745 298.08,38.7777"/>
<polyline fill="none" stroke="#262626" stroke-width="0.5" stroke-linecap="butt" stroke-linejoin="miter" stroke-opacity="0.15" stroke-dasharray="16,0" points="409.68,374.745 409.68,38.7777"/>
<polyline fill="none" stroke="#262626" stroke-width="0.5" stroke-linecap="butt" stroke-linejoin="miter" stroke-opacity="0.15" stroke-dasharray="16,0" points="521.28,374.745 521.28,38.7777"/>
<polyline fill="none" stroke="#262626" stroke-width="0.5" stroke-linecap="butt" stroke-linejoin="miter" points="74.88,374.745 74.88,370.282"/>
<polyline fill="none" stroke="#262626" stroke-width="0.5" stroke-linecap="butt" stroke-linejoin="miter" points="74.88,38.7777 74.88,43.2413"/>
<polyline fill="none" stroke="#262626" stroke-width="0.5" stroke-linecap="butt" stroke-linejoin="miter" points="186.48,374.745 186.48,370.282"/>
<polyline fill="none" stroke="#262626" stroke-width="0.5" stroke-linecap="butt" stroke-linejoin="miter" points="186.48,38.7777 186.48,43.2413"/>
<polyline fill="none" stroke="#262626" stroke-width="0.5" stroke-linecap="butt" stroke-linejoin="miter" points="298.08,374.745 298.08,370.282"/>
<polyline fill="none" stroke="#262626" stroke-width="0.5" stroke-linecap="butt" stroke-linejoin="miter" points="298.08,38.7777 298.08,43.2413"/>
<polyline fill="none" stroke="#262626" stroke-width="0.5" stroke-linecap="butt" stroke-linejoin="miter" points="409.68,374.745 409.68,370.282"/>
<polyline fill="none" stroke="#262626" stroke-width="0.5" stroke-linecap="butt" stroke-linejoin="miter" points="409.68,38.7777 409.68,43.2413"/>
<polyline fill="none" stroke="#262626" stroke-width="0.5" stroke-linecap="butt" stroke-linejoin="miter" points="521.28,374.745 521.28,370.282"/>
<polyline fill="none" stroke="#262626" stroke-width="0.5" stroke-linecap="butt" stroke-linejoin="miter" points="521.28,38.7777 521.28,43.2413"/>
<text fill="#262626" x="74.88" y="379.745" font-size="10" text-anchor="middle" dy="10" font-family="Helvetica">0</text>
<text fill="#262626" x="186.48" y="379.745" font-size="10" text-anchor="middle" dy="10" font-family="Helvetica">0.005</text>
<text fill="#262626" x="298.08" y="379.745" font-size="10" text-anchor="middle" dy="10" font-family="Helvetica">0.01</text>
<text fill="#262626" x="409.68" y="379.745" font-size="10" text-anchor="middle" dy="10" font-family="Helvetica">0.015</text>
<text fill="#262626" x="521.28" y="379.745" font-size="10" text-anchor="middle" dy="10" font-family="Helvetica">0.02</text>
<polyline fill="none" stroke="#262626" stroke-width="0.5" stroke-linecap="butt" stroke-linejoin="miter" stroke-opacity="0.15" stroke-dasharray="16,0" points="74.88,374.745 521.28,374.745"/>
<polyline fill="none" stroke="#262626" stroke-width="0.5" stroke-linecap="butt" stroke-linejoin="miter" stroke-opacity="0.15" stroke-dasharray="16,0" points="74.88,290.753 521.28,290.753"/>
<polyline fill="none" stroke="#262626" stroke-width="0.5" stroke-linecap="butt" stroke-linejoin="miter" stroke-opacity="0.15" stroke-dasharray="16,0" points="74.88,206.761 521.28,206.761"/>
<polyline fill="none" stroke="#262626" stroke-width="0.5" stroke-linecap="butt" stroke-linejoin="miter" stroke-opacity="0.15" stroke-dasharray="16,0" points="74.88,122.77 521.28,122.77"/>
<polyline fill="none" stroke="#262626" stroke-width="0.5" stroke-linecap="butt" stroke-linejoin="miter" stroke-opacity="0.15" stroke-dasharray="16,0" points="74.88,38.7777 521.28,38.7777"/>
<polyline fill="none" stroke="#262626" stroke-width="0.5" stroke-linecap="butt" stroke-linejoin="miter" points="74.88,374.745 79.348,374.745"/>
<polyline fill="none" stroke="#262626" stroke-width="0.5" stroke-linecap="butt" stroke-linejoin="miter" points="521.28,374.745 516.812,374.745"/>
<polyline fill="none" stroke="#262626" stroke-width="0.5" stroke-linecap="butt" stroke-linejoin="miter" points="74.88,290.753 79.348,290.753"/>
<polyline fill="none" stroke="#262626" stroke-width="0.5" stroke-linecap="butt" stroke-linejoin="miter" points="521.28,290.753 516.812,290.753"/>
<polyline fill="none" stroke="#262626" stroke-width="0.5" stroke-linecap="butt" stroke-linejoin="miter" points="74.88,206.761 79.348,206.761"/>
<polyline fill="none" stroke="#262626" stroke-width="0.5" stroke-linecap="butt" stroke-linejoin="miter" points="521.28,206.761 516.812,206.761"/>
<polyline fill="none" stroke="#262626" stroke-width="0.5" stroke-linecap="butt" stroke-linejoin="miter" points="74.88,122.77 79.348,122.77"/>
<polyline fill="none" stroke="#262626" stroke-width="0.5" stroke-linecap="butt" stroke-linejoin="miter" points="521.28,122.77 516.812,122.77"/>
<polyline fill="none" stroke="#262626" stroke-width="0.5" stroke-linecap="butt" stroke-linejoin="miter" points="74.88,38.7777 79.348,38.7777"/>
<polyline fill="none" stroke="#262626" stroke-width="0.5" stroke-linecap="butt" stroke-linejoin="miter" points="521.28,38.7777 516.812,38.7777"/>
<text fill="#262626" x="69.8755" y="374.745" font-size="10" text-anchor="end" dy="5" font-family="Helvetica">-1</text>
<text fill="#262626" x="69.8755" y="290.753" font-size="10" text-anchor="end" dy="5" font-family="Helvetica">-0.5</text>
<text fill="#262626" x="69.8755" y="206.761" font-size="10" text-anchor="end" dy="5" font-family="Helvetica">0</text>
<text fill="#262626" x="69.8755" y="122.77" font-size="10" text-anchor="end" dy="5" font-family="Helvetica">0.5</text>
<text fill="#262626" x="69.8755" y="38.7777" font-size="10" text-anchor="end" dy="5" font-family="Helvetica">1</text>
<polyline fill="none" stroke="#262626" stroke-width="0.5" stroke-linecap="butt" stroke-linejoin="miter" stroke-dasharray="16,0" points="74.88,374.745 521.28,374.745"/>
<polyline fill="none" stroke="#262626" stroke-width="0.5" stroke-linecap="butt" stroke-linejoin="miter" stroke-dasharray="16,0" points="74.88,38.7777 521.28,38.7777"/>
<polyline fill="none" stroke="#262626" stroke-width="0.5" stroke-linecap="butt" stroke-linejoin="miter" stroke-dasharray="16,0" points="74.88,374.745 74.88,38.7777"/>
<polyline fill="none" stroke="#262626" stroke-width="0.5" stroke-linecap="butt" stroke-linejoin="miter" stroke-dasharray="16,0" points="521.28,374.745 521.28,38.7777"/>
<text fill="#262626" x="298.08" y="392.745" font-size="11" text-anchor="middle" dy="11" font-family="Helvetica">t</text>
<polyline fill="none" stroke="#0000ff" stroke-width="0.5" stroke-linecap="butt" stroke-linejoin="miter" points="74.88,86.91 76.2794,118.033 77.6787,117.879 79.0781,152.457 80.4775,101.315 81.8769,158.311 83.2762,93.8563 84.6756,128.055 86.075,99.7466 87.4743,142.947 88.8737,138.144 90.2731,118.838 91.6725,128.188 93.0718,129.931 94.4712,132.366 95.8706,96.2863 97.27,282.192 98.6693,254.678 100.069,323.255 101.468,282.541 102.867,295.864 104.267,310.347 105.666,261.497 107.066,271.872 108.465,301.867 109.864,328.053 111.264,281.536 112.663,297.992 114.062,285.427 115.462,324.009 116.861,260.466 118.261,286.037 119.66,123.344 121.059,155.046 122.459,141.671 123.858,126.712 125.257,162.874 126.657,157.788 128.056,135.099 129.456,88.4633 130.855,96.6759 132.254,162.402 133.654,131.956 135.053,115.598 136.452,121.447 137.852,92.5388 139.251,105.852 140.651,110.056 142.05,282.402 143.449,297.418 144.849,310.106 146.248,264.731 147.647,284.34 149.047,323.701 150.446,276.404 151.846,299.571 153.245,318.944 154.644,301.924 156.044,269.032 157.443,266.561 158.842,304.625 160.242,305.702 161.641,250.418 163.04,313.094 164.44,131.203 165.839,142.312 167.239,144.024 168.638,131.443 170.037,139.323 171.437,128.798 172.836,156.702 174.235,110.066 175.635,164.202 177.034,88.3044 178.434,127.481 179.833,132.018 181.232,141.809 182.632,139.774 184.031,87.1612 185.43,143.983 186.83,263.732 188.229,322.619 189.629,318.616 191.028,301.708 192.427,305.922 193.827,325.664 195.226,303.631 196.625,254.668 198.025,316.293 199.424,271.334 200.824,323.68 202.223,303.61 203.622,292.932 205.022,303.851 206.421,299.509 207.82,262.691 209.22,161.972 210.619,147.607 212.019,136.365 213.418,151.001 214.817,116.659 216.217,91.5956 217.616,108.062 219.015,149.545 220.415,101.413 221.814,160.905 223.214,156.496 224.613,164.514 226.012,111.445 227.412,124.082 228.811,128.414 230.21,116.372 231.61,316.678 233.009,286.534 234.409,297.428 235.808,256.739 237.207,264.711 238.607,279.065 240.006,307.681 241.405,259.723 242.805,266.182 244.204,272.206 245.604,251.074 247.003,269.781 248.402,325.224 249.802,312.889 251.201,317.052 252.6,301.801 254,325.357 255.399,305.969 256.798,286.626 258.198,255.883 259.597,303.836 260.997,256.837 262.396,319.267 263.795,325.9 265.195,261.02 266.594,282.074 267.993,314.971 269.393,315.596 270.792,285.832 272.192,323.46 273.591,253.038 274.99,269.637 276.39,264.111 277.789,297.459 279.188,320.707 280.588,301.919 281.987,251.843 283.387,305.748 284.786,291.989 286.185,256.196 287.585,311.392 288.984,283.904 290.383,249.695 291.783,326.51 293.182,319.677 294.582,292.855 295.981,265.623 297.38,325.249 298.78,319.533 300.179,325.603 301.578,263.937 302.978,317.929 304.377,308.419 305.777,319.364 307.176,329.171 308.575,322.137 309.975,311.034 311.374,328.51 312.773,331.037 314.173,292.004 315.572,283.884 316.972,258.39 318.371,262.983 319.77,249.439 321.17,277.307 322.569,301.242 323.968,291.471 325.368,273.672 326.767,252.679 328.167,270.827 329.566,265.121 330.965,321.943 332.365,295.664 333.764,329.314 335.163,255.965 336.563,282.043 337.962,282.623 339.362,275.102 340.761,287.18 342.16,285.35 343.56,101.397 344.959,85.6284 346.358,82.6653 347.758,85.0081 349.157,160.505 350.556,127.778 351.956,162.443 353.355,82.0963 354.755,161.561 356.154,157.153 357.553,138.549 358.953,119.237 360.352,127.199 361.751,142.142 363.151,100.121 364.55,120.575 365.95,155.394 367.349,98.4291 368.748,116.028 370.148,149.125 371.547,99.7056 372.946,89.8064 374.346,109.918 375.745,111.271 377.145,163.361 378.544,163.94 379.943,147.725 381.343,99.0187 382.742,111.322 384.141,163.104 385.541,104.822 386.94,141.958 388.34,293.875 389.739,249.783 391.138,315.442 392.538,287.288 393.937,311.926 395.336,280.741 396.736,302.882 398.135,316.908 399.535,253.089 400.934,302.995 402.333,260.338 403.733,262.132 405.132,304.584 406.531,319.236 407.931,287.703 409.33,325.598 410.73,84.6133 412.129,112.865 413.528,91.5956 414.928,85.7668 416.327,113.04 417.726,101.992 419.126,108.6 420.525,83.4599 421.924,163.858 423.324,91.6981 424.723,108.677 426.123,142.691 427.522,86.7818 428.921,122.077 430.321,154.82 431.72,136.38 433.119,125.999 434.519,82.0911 435.918,109.513 437.318,110.348 438.717,80.9787 440.116,150.601 441.516,149.719 442.915,126.071 444.314,151.862 445.714,82.6345 447.113,143.952 448.513,111.696 449.912,138.672 451.311,133.591 452.711,100.193 454.11,127.43 455.509,291.23 456.909,270.186 458.308,317.79 459.708,328.576 461.107,261.379 462.506,265.285 463.906,251.71 465.305,285.268 466.704,319.22 468.104,267.766 469.503,323.291 470.903,249.598 472.302,301.77 473.701,269.289 475.101,278.301 476.5,311.305 477.899,157.583 479.299,104.089 480.698,87.9096 482.098,108.523 483.497,124.569 484.896,132.489 486.296,123.785 487.695,149.422 489.094,160.818 490.494,101.592 491.893,95.5122 493.293,97.6602 494.692,137.236 496.091,151.59 497.491,148.007 498.89,103.094 500.289,144.813 501.689,138.287 503.088,83.5727 504.488,160.587 505.887,91.8109 507.286,151.601 508.686,137.477 510.085,128.552 511.484,141.015 512.884,87.7354 514.283,124.523 515.682,97.4756 517.082,111.799 518.481,91.0727 519.881,103.279 521.28,87.7097"/>
<polyline fill="none" stroke="#00ff00" stroke-width="0.5" stroke-linecap="butt" stroke-linejoin="miter" points="74.88,204.46 76.2794,200.632 77.6787,197.66 79.0781,195.491 80.4775,193.04 81.8769,190.727 83.2762,188.251 84.6756,185.158 86.075,182.165 87.4743,179.408 88.8737,177.299 90.2731,174.577 91.6725,171.568 93.0718,168.701 94.4712,165.841 95.8706,162.28 97.27,161.615 98.6693,163.808 100.069,166.45 101.468,169.358 102.867,171.568 104.267,174.316 105.666,176.478 107.066,178.13 108.465,180.918 109.864,185.13 111.264,189.254 112.663,193.18 114.062,197.621 115.462,202.988 116.861,208.239 118.261,213.132 119.66,215.766 121.059,216.385 122.459,217.911 123.858,219.236 125.257,221.18 126.657,223.725 128.056,225.542 129.456,225.744 130.855,224.905 132.254,225.107 133.654,225.378 135.053,224.021 136.452,221.766 137.852,218.36 139.251,213.97 140.651,209.26 142.05,207.277 143.449,208.016 144.849,208.269 146.248,207.047 147.647,204.754 149.047,203.262 150.446,201.392 151.846,199.046 153.245,197.725 154.644,196.752 156.044,195.276 157.443,193.78 158.842,193.766 160.242,195.3 161.641,196.57 163.04,198.868 164.44,199.736 165.839,198.32 167.239,198.297 168.638,199.009 170.037,200.409 171.437,202.352 172.836,205.034 174.235,207.548 175.635,210.251 177.034,212.399 178.434,213.585 179.833,215.264 181.232,216.67 182.632,217.556 184.031,216.644 185.43,215.098 186.83,216.181 188.229,219.656 189.629,222.96 191.028,224.713 192.427,225.29 193.827,225.595 195.226,225.269 196.625,223.18 198.025,221.217 199.424,219.581 200.824,218.207 202.223,217.691 203.622,216.893 205.022,216.565 206.421,216.91 207.82,217.062 209.22,215.274 210.619,212.186 212.019,209.621 213.418,208.054 214.817,206.899 216.217,205.282 217.616,204.113 219.015,204.512 220.415,204.984 221.814,205.746 223.214,207.491 224.613,209.035 226.012,209.357 227.412,208.548 228.811,207.701 230.21,206.252 231.61,207.932 233.009,212.089 234.409,214.898 235.808,216.319 237.207,216.471 238.607,216.583 240.006,217.129 241.405,216.969 242.805,215.837 244.204,214.947 245.604,213.845 247.003,212.884 248.402,213.612 249.802,215.384 251.201,217.226 252.6,219.171 254,221.664 255.399,224.649 256.798,227.318 258.198,229.515 259.597,232.583 260.997,236.129 262.396,240.369 263.795,246.24 265.195,251.127 266.594,255.34 267.993,260.743 269.393,266.767 270.792,272.084 272.192,277.386 273.591,281.81 274.99,284.938 276.39,288.025 277.789,291.298 279.188,295.202 280.588,298.611 281.987,300.099 283.387,301.168 284.786,302.494 286.185,302.299 287.585,302.005 288.984,301.763 290.383,299.85 291.783,298.416 293.182,297.961 294.582,296.455 295.981,293.647 297.38,291.357 298.78,290.01 300.179,288.571 301.578,286.053 302.978,283.544 304.377,282.11 305.777,280.906 307.176,280.357 308.575,280.134 309.975,279.874 311.374,280.11 312.773,281.108 314.173,281.762 315.572,281.925 316.972,281.904 318.371,281.945 319.77,282.243 321.17,283.176 322.569,285.36 323.968,287.917 325.368,289.965 326.767,291.277 328.167,292.539 329.566,293.977 330.965,296.248 332.365,298.827 333.764,301.199 335.163,302.437 336.563,302.457 337.962,302.737 339.362,302.575 340.761,302.201 342.16,301.722 343.56,297.374 344.959,289.185 346.358,280.885 347.758,272.747 349.157,266.183 350.556,260.332 351.956,254.316 353.355,247.221 354.755,239.991 356.154,234.095 357.553,227.563 358.953,220.203 360.352,212.639 361.751,205.595 363.151,198.128 364.55,190.443 365.95,184.099 367.349,177.572 368.748,170.626 370.148,165.097 371.547,159.654 372.946,153.54 374.346,148.206 375.745,143.853 377.145,141.063 378.544,139.739 379.943,138.505 381.343,136.458 382.742,134.247 384.141,133.826 385.541,133.695 386.94,133.55 388.34,137.418 389.739,143.407 391.138,149.715 392.538,156.663 393.937,163.448 395.336,170.063 396.736,176.5 398.135,183.656 399.535,189.831 400.934,195.793 402.333,201.944 403.733,207.315 405.132,213.563 406.531,220.81 407.931,227.509 409.33,234.109 410.73,236.546 412.129,234.905 413.528,233.613 414.928,231.831 416.327,230.374 417.726,228.964 419.126,227.061 420.525,224.313 421.924,222.093 423.324,219.366 424.723,214.893 426.123,210.809 427.522,205.655 428.921,199.541 430.321,194.261 431.72,188.752 433.119,182.272 434.519,174.495 435.918,166.342 437.318,158.793 438.717,150.808 440.116,143.853 441.516,138.502 442.915,132.963 444.314,127.897 445.714,122.518 447.113,117.653 448.513,114.071 449.912,111.101 451.311,109.296 452.711,107.475 454.11,106.312 455.509,109.575 456.909,116.007 458.308,123.18 459.708,131.715 461.107,139.359 462.506,146.101 463.906,153.062 465.305,160.779 466.704,170.071 468.104,179.139 469.503,188.37 470.903,197.261 472.302,205.698 473.701,214.418 475.101,222.468 476.5,231.05 477.899,236.888 479.299,238.425 480.698,238.498 482.098,238.46 483.497,238.743 484.896,238.897 486.296,238.3 487.695,237.22 489.094,235.967 490.494,232.845 491.893,227.612 493.293,221.573 494.692,215.64 496.091,210.035 497.491,203.938 498.89,196.318 500.289,188.256 501.689,180.622 503.088,171.647 504.488,163.174 505.887,155.025 507.286,146.988 508.686,140.25 510.085,133.537 511.484,127.51 512.884,121.405 514.283,115.826 515.682,111.343 517.082,107.532 518.481,104.536 519.881,102.307 521.28,100.92"/>
<text fill="#000000" x="298.08" y="28.7777" font-size="11" text-anchor="middle" dy="0" font-family="Helvetica" font-weight="bold">Rozdiel signálov po filtrovaní</text>
</g>
<clipPath id="cp00576432">
  <polygon points="0,432 576,432 576,0 0,0"/>
</clipPath>
<g clip-path="url(#cp00576432)">
<polygon fill="#ffffff" shape-rendering="crispEdges" points="244.612,429.259 351.548,429.259 244.612,413.146"/>
<polygon fill="#ffffff" shape-rendering="crispEdges" points="351.548,429.259 351.548,413.146 244.612,413.146"/>
<polyline fill="none" stroke="#262626" stroke-width="0.5" stroke-linecap="butt" stroke-linejoin="miter" stroke-dasharray="16,0" points="244.612,429.259 351.548,429.259"/>
<polyline fill="none" stroke="#262626" stroke-width="0.5" stroke-linecap="butt" stroke-linejoin="miter" stroke-dasharray="16,0" points="244.612,413.146 351.548,413.146"/>
<polyline fill="none" stroke="#262626" stroke-width="0.5" stroke-linecap="butt" stroke-linejoin="miter" stroke-dasharray="16,0" points="244.612,429.259 244.612,413.146"/>
<polyline fill="none" stroke="#262626" stroke-width="0.5" stroke-linecap="butt" stroke-linejoin="miter" stroke-dasharray="16,0" points="351.548,429.259 351.548,413.146"/>
<text fill="#000000" x="270.653" y="421.203" font-size="10" text-anchor="start" dy="5" font-family="Helvetica">s[n]</text>
<text fill="#000000" x="324.121" y="421.203" font-size="10" text-anchor="start" dy="5" font-family="Helvetica">ss[n]</text>
<polyline fill="none" stroke="#0000ff" stroke-width="0.5" stroke-linecap="butt" stroke-linejoin="miter" points="247.353,421.203 267.912,421.203"/>
<polyline fill="none" stroke="#00ff00" stroke-width="0.5" stroke-linecap="butt" stroke-linejoin="miter" points="300.821,421.203 321.38,421.203"/>
</g>
</g>
</svg>
