<?xml version="1.0" encoding="UTF-8" standalone="no"?>
<svg xmlns="http://www.w3.org/2000/svg"
     xmlns:xlink="http://www.w3.org/1999/xlink"
     width="576px" height="432px" viewBox="0 0 576 432">
<title>gl2ps_renderer figure</title>
<desc>
Creator: GL2PS 1.4.0, (C) 1999-2017 C. Geuzaine
For: Octave
CreationDate: Sun Dec 23 21:32:46 2018
</desc>
<defs>
</defs>
<polygon fill="#ffffff" points="0,0 576,0 576,432 0,432"/>
<g>
<polygon fill="#ffffff" points="0,432 576,432 576,0 0,0" shape-rendering="crispEdges"/>
<clipPath id="cp00576432">
  <polygon points="0,432 576,432 576,0 0,0"/>
</clipPath>
<g clip-path="url(#cp00576432)">
<polygon fill="#ffffff" shape-rendering="crispEdges" points="74.88,305.836 521.28,305.836 74.88,38.7777"/>
<polygon fill="#ffffff" shape-rendering="crispEdges" points="521.28,305.836 521.28,38.7777 74.88,38.7777"/>
<polyline fill="none" stroke="#262626" stroke-width="0.5" stroke-linecap="butt" stroke-linejoin="miter" stroke-opacity="0.15" stroke-dasharray="16,0" points="74.88,305.836 74.88,38.7777"/>
<polyline fill="none" stroke="#262626" stroke-width="0.5" stroke-linecap="butt" stroke-linejoin="miter" stroke-opacity="0.15" stroke-dasharray="16,0" points="186.48,305.836 186.48,38.7777"/>
<polyline fill="none" stroke="#262626" stroke-width="0.5" stroke-linecap="butt" stroke-linejoin="miter" stroke-opacity="0.15" stroke-dasharray="16,0" points="298.08,305.836 298.08,38.7777"/>
<polyline fill="none" stroke="#262626" stroke-width="0.5" stroke-linecap="butt" stroke-linejoin="miter" stroke-opacity="0.15" stroke-dasharray="16,0" points="409.68,305.836 409.68,38.7777"/>
<polyline fill="none" stroke="#262626" stroke-width="0.5" stroke-linecap="butt" stroke-linejoin="miter" stroke-opacity="0.15" stroke-dasharray="16,0" points="521.28,305.836 521.28,38.7777"/>
<polyline fill="none" stroke="#262626" stroke-width="0.5" stroke-linecap="butt" stroke-linejoin="miter" points="74.88,305.836 74.88,301.371"/>
<polyline fill="none" stroke="#262626" stroke-width="0.5" stroke-linecap="butt" stroke-linejoin="miter" points="74.88,38.7777 74.88,43.2427"/>
<polyline fill="none" stroke="#262626" stroke-width="0.5" stroke-linecap="butt" stroke-linejoin="miter" points="186.48,305.836 186.48,301.371"/>
<polyline fill="none" stroke="#262626" stroke-width="0.5" stroke-linecap="butt" stroke-linejoin="miter" points="186.48,38.7777 186.48,43.2427"/>
<polyline fill="none" stroke="#262626" stroke-width="0.5" stroke-linecap="butt" stroke-linejoin="miter" points="298.08,305.836 298.08,301.371"/>
<polyline fill="none" stroke="#262626" stroke-width="0.5" stroke-linecap="butt" stroke-linejoin="miter" points="298.08,38.7777 298.08,43.2427"/>
<polyline fill="none" stroke="#262626" stroke-width="0.5" stroke-linecap="butt" stroke-linejoin="miter" points="409.68,305.836 409.68,301.371"/>
<polyline fill="none" stroke="#262626" stroke-width="0.5" stroke-linecap="butt" stroke-linejoin="miter" points="409.68,38.7777 409.68,43.2427"/>
<polyline fill="none" stroke="#262626" stroke-width="0.5" stroke-linecap="butt" stroke-linejoin="miter" points="521.28,305.836 521.28,301.371"/>
<polyline fill="none" stroke="#262626" stroke-width="0.5" stroke-linecap="butt" stroke-linejoin="miter" points="521.28,38.7777 521.28,43.2427"/>
<text fill="#262626" x="74.88" y="310.837" font-size="10" text-anchor="middle" dy="10" font-family="Helvetica">0</text>
<text fill="#262626" x="186.48" y="310.837" font-size="10" text-anchor="middle" dy="10" font-family="Helvetica">0.005</text>
<text fill="#262626" x="298.08" y="310.837" font-size="10" text-anchor="middle" dy="10" font-family="Helvetica">0.01</text>
<text fill="#262626" x="409.68" y="310.837" font-size="10" text-anchor="middle" dy="10" font-family="Helvetica">0.015</text>
<text fill="#262626" x="521.28" y="310.837" font-size="10" text-anchor="middle" dy="10" font-family="Helvetica">0.02</text>
<polyline fill="none" stroke="#262626" stroke-width="0.5" stroke-linecap="butt" stroke-linejoin="miter" stroke-opacity="0.15" stroke-dasharray="16,0" points="74.88,305.836 521.28,305.836"/>
<polyline fill="none" stroke="#262626" stroke-width="0.5" stroke-linecap="butt" stroke-linejoin="miter" stroke-opacity="0.15" stroke-dasharray="16,0" points="74.88,239.071 521.28,239.071"/>
<polyline fill="none" stroke="#262626" stroke-width="0.5" stroke-linecap="butt" stroke-linejoin="miter" stroke-opacity="0.15" stroke-dasharray="16,0" points="74.88,172.307 521.28,172.307"/>
<polyline fill="none" stroke="#262626" stroke-width="0.5" stroke-linecap="butt" stroke-linejoin="miter" stroke-opacity="0.15" stroke-dasharray="16,0" points="74.88,105.542 521.28,105.542"/>
<polyline fill="none" stroke="#262626" stroke-width="0.5" stroke-linecap="butt" stroke-linejoin="miter" stroke-opacity="0.15" stroke-dasharray="16,0" points="74.88,38.7777 521.28,38.7777"/>
<polyline fill="none" stroke="#262626" stroke-width="0.5" stroke-linecap="butt" stroke-linejoin="miter" points="74.88,305.836 79.348,305.836"/>
<polyline fill="none" stroke="#262626" stroke-width="0.5" stroke-linecap="butt" stroke-linejoin="miter" points="521.28,305.836 516.812,305.836"/>
<polyline fill="none" stroke="#262626" stroke-width="0.5" stroke-linecap="butt" stroke-linejoin="miter" points="74.88,239.071 79.348,239.071"/>
<polyline fill="none" stroke="#262626" stroke-width="0.5" stroke-linecap="butt" stroke-linejoin="miter" points="521.28,239.071 516.812,239.071"/>
<polyline fill="none" stroke="#262626" stroke-width="0.5" stroke-linecap="butt" stroke-linejoin="miter" points="74.88,172.307 79.348,172.307"/>
<polyline fill="none" stroke="#262626" stroke-width="0.5" stroke-linecap="butt" stroke-linejoin="miter" points="521.28,172.307 516.812,172.307"/>
<polyline fill="none" stroke="#262626" stroke-width="0.5" stroke-linecap="butt" stroke-linejoin="miter" points="74.88,105.542 79.348,105.542"/>
<polyline fill="none" stroke="#262626" stroke-width="0.5" stroke-linecap="butt" stroke-linejoin="miter" points="521.28,105.542 516.812,105.542"/>
<polyline fill="none" stroke="#262626" stroke-width="0.5" stroke-linecap="butt" stroke-linejoin="miter" points="74.88,38.7777 79.348,38.7777"/>
<polyline fill="none" stroke="#262626" stroke-width="0.5" stroke-linecap="butt" stroke-linejoin="miter" points="521.28,38.7777 516.812,38.7777"/>
<text fill="#262626" x="69.8755" y="305.836" font-size="10" text-anchor="end" dy="5" font-family="Helvetica">-1</text>
<text fill="#262626" x="69.8755" y="239.071" font-size="10" text-anchor="end" dy="5" font-family="Helvetica">-0.5</text>
<text fill="#262626" x="69.8755" y="172.307" font-size="10" text-anchor="end" dy="5" font-family="Helvetica">0</text>
<text fill="#262626" x="69.8755" y="105.542" font-size="10" text-anchor="end" dy="5" font-family="Helvetica">0.5</text>
<text fill="#262626" x="69.8755" y="38.7777" font-size="10" text-anchor="end" dy="5" font-family="Helvetica">1</text>
<polyline fill="none" stroke="#262626" stroke-width="0.5" stroke-linecap="butt" stroke-linejoin="miter" stroke-dasharray="16,0" points="74.88,305.836 521.28,305.836"/>
<polyline fill="none" stroke="#262626" stroke-width="0.5" stroke-linecap="butt" stroke-linejoin="miter" stroke-dasharray="16,0" points="74.88,38.7777 521.28,38.7777"/>
<polyline fill="none" stroke="#262626" stroke-width="0.5" stroke-linecap="butt" stroke-linejoin="miter" stroke-dasharray="16,0" points="74.88,305.836 74.88,38.7777"/>
<polyline fill="none" stroke="#262626" stroke-width="0.5" stroke-linecap="butt" stroke-linejoin="miter" stroke-dasharray="16,0" points="521.28,305.836 521.28,38.7777"/>
<text fill="#262626" x="298.08" y="323.837" font-size="11" text-anchor="middle" dy="11" font-family="Helvetica">t</text>
<polyline fill="none" stroke="#0000ff" stroke-width="0.5" stroke-linecap="butt" stroke-linejoin="miter" points="74.88,77.0377 76.2794,101.777 77.6787,101.655 79.0781,129.14 80.4775,88.4884 81.8769,133.794 83.2762,82.5593 84.6756,109.744 86.075,87.2415 87.4743,121.581 88.8737,117.763 90.2731,102.417 91.6725,109.849 93.0718,111.235 94.4712,113.171 95.8706,84.4909 97.27,232.266 98.6693,210.396 100.069,264.907 101.468,232.543 102.867,243.134 104.267,254.646 105.666,215.815 107.066,224.063 108.465,247.906 109.864,268.721 111.264,231.745 112.663,244.825 114.062,234.837 115.462,265.506 116.861,214.996 118.261,235.322 119.66,105.999 121.059,131.198 122.459,120.567 123.858,108.676 125.257,137.421 126.657,133.378 128.056,115.343 129.456,78.2724 130.855,84.8005 132.254,137.046 133.654,112.845 135.053,99.8413 136.452,104.491 137.852,81.5121 139.251,92.0948 140.651,95.4363 142.05,232.433 143.449,244.369 144.849,254.454 146.248,218.387 147.647,233.974 149.047,265.261 150.446,227.665 151.846,246.08 153.245,261.48 154.644,247.951 156.044,221.806 157.443,219.841 158.842,250.098 160.242,250.954 161.641,207.009 163.04,256.83 164.44,112.246 165.839,121.076 167.239,122.437 168.638,112.437 170.037,118.7 171.437,110.334 172.836,132.515 174.235,95.4444 175.635,138.476 177.034,78.1461 178.434,109.287 179.833,112.893 181.232,120.677 182.632,119.059 184.031,77.2374 185.43,122.405 186.83,217.592 188.229,264.401 189.629,261.219 191.028,247.78 192.427,251.129 193.827,266.822 195.226,249.308 196.625,210.388 198.025,259.373 199.424,223.635 200.824,265.245 202.223,249.291 203.622,240.803 205.022,249.483 206.421,246.031 207.82,216.765 209.22,136.704 210.619,125.286 212.019,116.349 213.418,127.983 214.817,100.685 216.217,80.7623 217.616,93.8511 219.015,126.826 220.415,88.5659 221.814,135.856 223.214,132.352 224.613,138.725 226.012,96.5406 227.412,106.585 228.811,110.029 230.21,100.457 231.61,259.679 233.009,235.718 234.409,244.377 235.808,212.034 237.207,218.37 238.607,229.78 240.006,252.527 241.405,214.405 242.805,219.54 244.204,224.328 245.604,207.531 247.003,222.401 248.402,266.471 249.802,256.667 251.201,259.976 252.6,247.853 254,266.577 255.399,251.166 256.798,235.791 258.198,211.353 259.597,249.471 260.997,212.111 262.396,261.736 263.795,267.009 265.195,215.436 266.594,232.172 267.993,258.322 269.393,258.819 270.792,235.159 272.192,265.07 273.591,209.092 274.99,222.286 276.39,217.894 277.789,244.401 279.188,262.881 280.588,247.947 281.987,208.142 283.387,250.991 284.786,240.053 286.185,211.602 287.585,255.477 288.984,233.627 290.383,206.435 291.783,267.494 293.182,262.062 294.582,240.742 295.981,219.096 297.38,266.492 298.78,261.948 300.179,266.773 301.578,217.755 302.978,260.673 304.377,253.114 305.777,261.814 307.176,269.609 308.575,264.018 309.975,255.192 311.374,269.084 312.773,271.093 314.173,240.066 315.572,233.611 316.972,213.346 318.371,216.997 319.77,206.231 321.17,228.383 322.569,247.409 323.968,239.642 325.368,225.493 326.767,208.806 328.167,223.232 329.566,218.696 330.965,263.864 332.365,242.975 333.764,269.723 335.163,211.418 336.563,232.148 337.962,232.608 339.362,226.63 340.761,236.231 342.16,234.776 343.56,88.5536 344.959,76.019 346.358,73.6636 347.758,75.5259 349.157,135.538 350.556,109.523 351.956,137.079 353.355,73.2113 354.755,136.378 356.154,132.873 357.553,118.085 358.953,102.735 360.352,109.063 361.751,120.942 363.151,87.5389 364.55,103.798 365.95,131.475 367.349,86.1942 368.748,100.184 370.148,126.492 371.547,87.2089 372.946,79.3401 374.346,95.3262 375.745,96.402 377.145,137.808 378.544,138.268 379.943,125.379 381.343,86.6628 382.742,96.4428 384.141,137.604 385.541,91.2757 386.94,120.795 388.34,241.553 389.739,206.504 391.138,258.696 392.538,236.317 393.937,255.901 395.336,231.113 396.736,248.713 398.135,259.862 399.535,209.132 400.934,248.802 402.333,214.894 403.733,216.321 405.132,250.066 406.531,261.712 407.931,236.647 409.33,266.769 410.73,75.2121 412.129,97.6694 413.528,80.7623 414.928,76.129 416.327,97.8079 417.726,89.0263 419.126,94.279 420.525,74.2953 421.924,138.203 423.324,80.8438 424.723,94.3401 426.123,121.378 427.522,76.9359 428.921,104.992 430.321,131.019 431.72,116.361 433.119,108.109 434.519,73.2072 435.918,95.0043 437.318,95.6685 438.717,72.3229 440.116,127.665 441.516,126.964 442.915,108.167 444.314,128.668 445.714,73.6392 447.113,122.38 448.513,96.7403 449.912,118.183 451.311,114.145 452.711,87.596 454.11,109.246 455.509,239.45 456.909,222.722 458.308,260.563 459.708,269.137 461.107,215.722 462.506,218.827 463.906,208.036 465.305,234.711 466.704,261.7 468.104,220.799 469.503,264.935 470.903,206.357 472.302,247.828 473.701,222.009 475.101,229.173 476.5,255.408 477.899,133.215 479.299,90.693 480.698,77.8323 482.098,94.2178 483.497,106.973 484.896,113.268 486.296,106.349 487.695,126.728 489.094,135.787 490.494,88.7085 491.893,83.8755 493.293,85.5829 494.692,117.042 496.091,128.452 497.491,125.603 498.89,89.9024 500.289,123.065 501.689,117.877 503.088,74.3849 504.488,135.603 505.887,80.9334 507.286,128.46 508.686,117.233 510.085,110.139 511.484,120.045 512.884,77.6938 514.283,106.936 515.682,85.4362 517.082,96.8218 518.481,80.3466 519.881,90.0491 521.28,77.6734"/>
<polyline fill="none" stroke="#00ff00" stroke-width="0.5" stroke-linecap="butt" stroke-linejoin="miter" points="74.88,170.478 76.2794,167.434 77.6787,165.072 79.0781,163.348 80.4775,161.4 81.8769,159.561 83.2762,157.593 84.6756,155.135 86.075,152.755 87.4743,150.563 88.8737,148.887 90.2731,146.724 91.6725,144.332 93.0718,142.053 94.4712,139.78 95.8706,136.948 97.27,136.42 98.6693,138.164 100.069,140.264 101.468,142.575 102.867,144.332 104.267,146.516 105.666,148.235 107.066,149.548 108.465,151.764 109.864,155.112 111.264,158.39 112.663,161.511 114.062,165.041 115.462,169.308 116.861,173.481 118.261,177.371 119.66,179.465 121.059,179.956 122.459,181.17 123.858,182.223 125.257,183.768 126.657,185.791 128.056,187.235 129.456,187.396 130.855,186.729 132.254,186.89 133.654,187.105 135.053,186.026 136.452,184.234 137.852,181.526 139.251,178.037 140.651,174.293 142.05,172.716 143.449,173.304 144.849,173.505 146.248,172.533 147.647,170.711 149.047,169.525 150.446,168.038 151.846,166.173 153.245,165.123 154.644,164.351 156.044,163.177 157.443,161.988 158.842,161.977 160.242,163.196 161.641,164.206 163.04,166.033 164.44,166.722 165.839,165.597 167.239,165.578 168.638,166.145 170.037,167.258 171.437,168.802 172.836,170.934 174.235,172.932 175.635,175.08 177.034,176.788 178.434,177.731 179.833,179.066 181.232,180.183 182.632,180.888 184.031,180.162 185.43,178.933 186.83,179.794 188.229,182.557 189.629,185.183 191.028,186.577 192.427,187.035 193.827,187.278 195.226,187.018 196.625,185.358 198.025,183.798 199.424,182.497 200.824,181.405 202.223,180.994 203.622,180.36 205.022,180.1 206.421,180.374 207.82,180.495 209.22,179.073 210.619,176.619 212.019,174.58 213.418,173.335 214.817,172.417 216.217,171.13 217.616,170.201 219.015,170.519 220.415,170.894 221.814,171.5 223.214,172.887 224.613,174.114 226.012,174.37 227.412,173.727 228.811,173.054 230.21,171.902 231.61,173.237 233.009,176.542 234.409,178.774 235.808,179.904 237.207,180.025 238.607,180.114 240.006,180.548 241.405,180.421 242.805,179.521 244.204,178.813 245.604,177.937 247.003,177.174 248.402,177.753 249.802,179.161 251.201,180.625 252.6,182.171 254,184.153 255.399,186.526 256.798,188.647 258.198,190.393 259.597,192.833 260.997,195.651 262.396,199.021 263.795,203.688 265.195,207.573 266.594,210.922 267.993,215.216 269.393,220.005 270.792,224.232 272.192,228.446 273.591,231.962 274.99,234.449 276.39,236.903 277.789,239.505 279.188,242.608 280.588,245.317 281.987,246.501 283.387,247.35 284.786,248.404 286.185,248.249 287.585,248.015 288.984,247.823 290.383,246.302 291.783,245.162 293.182,244.801 294.582,243.603 295.981,241.371 297.38,239.551 298.78,238.481 300.179,237.337 301.578,235.336 302.978,233.34 304.377,232.201 305.777,231.244 307.176,230.808 308.575,230.63 309.975,230.424 311.374,230.611 312.773,231.405 314.173,231.925 315.572,232.054 316.972,232.037 318.371,232.07 319.77,232.306 321.17,233.048 322.569,234.785 323.968,236.817 325.368,238.445 326.767,239.488 328.167,240.491 329.566,241.633 330.965,243.439 332.365,245.489 333.764,247.374 335.163,248.359 336.563,248.374 337.962,248.597 339.362,248.468 340.761,248.171 342.16,247.791 343.56,244.334 344.959,237.825 346.358,231.227 347.758,224.758 349.157,219.541 350.556,214.89 351.956,210.108 353.355,204.468 354.755,198.721 356.154,194.034 357.553,188.842 358.953,182.991 360.352,176.979 361.751,171.38 363.151,165.444 364.55,159.335 365.95,154.293 367.349,149.105 368.748,143.583 370.148,139.188 371.547,134.862 372.946,130.001 374.346,125.761 375.745,122.302 377.145,120.083 378.544,119.031 379.943,118.05 381.343,116.423 382.742,114.666 384.141,114.331 385.541,114.227 386.94,114.112 388.34,117.186 389.739,121.947 391.138,126.961 392.538,132.484 393.937,137.877 395.336,143.136 396.736,148.252 398.135,153.941 399.535,158.849 400.934,163.588 402.333,168.477 403.733,172.747 405.132,177.713 406.531,183.474 407.931,188.799 409.33,194.045 410.73,195.982 412.129,194.678 413.528,193.651 414.928,192.234 416.327,191.076 417.726,189.955 419.126,188.443 420.525,186.258 421.924,184.494 423.324,182.326 424.723,178.771 426.123,175.524 427.522,171.427 428.921,166.567 430.321,162.37 431.72,157.991 433.119,152.84 434.519,146.659 435.918,140.178 437.318,134.177 438.717,127.83 440.116,122.301 441.516,118.048 442.915,113.645 444.314,109.618 445.714,105.343 447.113,101.475 448.513,98.6282 449.912,96.2667 451.311,94.8324 452.711,93.3844 454.11,92.4606 455.509,95.0539 456.909,100.167 458.308,105.869 459.708,112.653 461.107,118.729 462.506,124.089 463.906,129.621 465.305,135.755 466.704,143.142 468.104,150.35 469.503,157.688 470.903,164.755 472.302,171.461 473.701,178.393 475.101,184.791 476.5,191.614 477.899,196.254 479.299,197.476 480.698,197.534 482.098,197.504 483.497,197.728 484.896,197.851 486.296,197.377 487.695,196.518 489.094,195.522 490.494,193.04 491.893,188.881 493.293,184.08 494.692,179.364 496.091,174.909 497.491,170.063 498.89,164.006 500.289,157.597 501.689,151.529 503.088,144.394 504.488,137.659 505.887,131.182 507.286,124.793 508.686,119.437 510.085,114.101 511.484,109.31 512.884,104.457 514.283,100.022 515.682,96.4597 517.082,93.43 518.481,91.0486 519.881,89.277 521.28,88.1745"/>
<polyline fill="none" stroke="#ff00ff" stroke-width="0.5" stroke-linecap="butt" stroke-linejoin="miter" points="74.88,136.948 76.2794,136.42 77.6787,138.164 79.0781,140.264 80.4775,142.575 81.8769,144.332 83.2762,146.516 84.6756,148.235 86.075,149.548 87.4743,151.764 88.8737,155.112 90.2731,158.39 91.6725,161.511 93.0718,165.041 94.4712,169.308 95.8706,173.481 97.27,177.371 98.6693,179.465 100.069,179.956 101.468,181.17 102.867,182.223 104.267,183.768 105.666,185.791 107.066,187.235 108.465,187.396 109.864,186.729 111.264,186.89 112.663,187.105 114.062,186.026 115.462,184.234 116.861,181.526 118.261,178.037 119.66,174.293 121.059,172.716 122.459,173.304 123.858,173.505 125.257,172.533 126.657,170.711 128.056,169.525 129.456,168.038 130.855,166.173 132.254,165.123 133.654,164.351 135.053,163.177 136.452,161.988 137.852,161.977 139.251,163.196 140.651,164.206 142.05,166.033 143.449,166.722 144.849,165.597 146.248,165.578 147.647,166.145 149.047,167.258 150.446,168.802 151.846,170.934 153.245,172.932 154.644,175.08 156.044,176.788 157.443,177.731 158.842,179.066 160.242,180.183 161.641,180.888 163.04,180.162 164.44,178.933 165.839,179.794 167.239,182.557 168.638,185.183 170.037,186.577 171.437,187.035 172.836,187.278 174.235,187.018 175.635,185.358 177.034,183.798 178.434,182.497 179.833,181.405 181.232,180.994 182.632,180.36 184.031,180.1 185.43,180.374 186.83,180.495 188.229,179.073 189.629,176.619 191.028,174.58 192.427,173.335 193.827,172.417 195.226,171.13 196.625,170.201 198.025,170.519 199.424,170.894 200.824,171.5 202.223,172.887 203.622,174.114 205.022,174.37 206.421,173.727 207.82,173.054 209.22,171.902 210.619,173.237 212.019,176.542 213.418,178.774 214.817,179.904 216.217,180.025 217.616,180.114 219.015,180.548 220.415,180.421 221.814,179.521 223.214,178.813 224.613,177.937 226.012,177.174 227.412,177.753 228.811,179.161 230.21,180.625 231.61,182.171 233.009,184.153 234.409,186.526 235.808,188.647 237.207,190.393 238.607,192.833 240.006,195.651 241.405,199.021 242.805,203.688 244.204,207.573 245.604,210.922 247.003,215.216 248.402,220.005 249.802,224.232 251.201,228.446 252.6,231.962 254,234.449 255.399,236.903 256.798,239.505 258.198,242.608 259.597,245.317 260.997,246.501 262.396,247.35 263.795,248.404 265.195,248.249 266.594,248.015 267.993,247.823 269.393,246.302 270.792,245.162 272.192,244.801 273.591,243.603 274.99,241.371 276.39,239.551 277.789,238.481 279.188,237.337 280.588,235.336 281.987,233.34 283.387,232.201 284.786,231.244 286.185,230.808 287.585,230.63 288.984,230.424 290.383,230.611 291.783,231.405 293.182,231.925 294.582,232.054 295.981,232.037 297.38,232.07 298.78,232.306 300.179,233.048 301.578,234.785 302.978,236.817 304.377,238.445 305.777,239.488 307.176,240.491 308.575,241.633 309.975,243.439 311.374,245.489 312.773,247.374 314.173,248.359 315.572,248.374 316.972,248.597 318.371,248.468 319.77,248.171 321.17,247.791 322.569,244.334 323.968,237.825 325.368,231.227 326.767,224.758 328.167,219.541 329.566,214.89 330.965,210.108 332.365,204.468 333.764,198.721 335.163,194.034 336.563,188.842 337.962,182.991 339.362,176.979 340.761,171.38 342.16,165.444 343.56,159.335 344.959,154.293 346.358,149.105 347.758,143.583 349.157,139.188 350.556,134.862 351.956,130.001 353.355,125.761 354.755,122.302 356.154,120.083 357.553,119.031 358.953,118.05 360.352,116.423 361.751,114.666 363.151,114.331 364.55,114.227 365.95,114.112 367.349,117.186 368.748,121.947 370.148,126.961 371.547,132.484 372.946,137.877 374.346,143.136 375.745,148.252 377.145,153.941 378.544,158.849 379.943,163.588 381.343,168.477 382.742,172.747 384.141,177.713 385.541,183.474 386.94,188.799 388.34,194.045 389.739,195.982 391.138,194.678 392.538,193.651 393.937,192.234 395.336,191.076 396.736,189.955 398.135,188.443 399.535,186.258 400.934,184.494 402.333,182.326 403.733,178.771 405.132,175.524 406.531,171.427 407.931,166.567 409.33,162.37 410.73,157.991 412.129,152.84 413.528,146.659 414.928,140.178 416.327,134.177 417.726,127.83 419.126,122.301 420.525,118.048 421.924,113.645 423.324,109.618 424.723,105.343 426.123,101.475 427.522,98.6282 428.921,96.2667 430.321,94.8324 431.72,93.3844 433.119,92.4606 434.519,95.0539 435.918,100.167 437.318,105.869 438.717,112.653 440.116,118.729 441.516,124.089 442.915,129.621 444.314,135.755 445.714,143.142 447.113,150.35 448.513,157.688 449.912,164.755 451.311,171.461 452.711,178.393 454.11,184.791 455.509,191.614 456.909,196.254 458.308,197.476 459.708,197.534 461.107,197.504 462.506,197.728 463.906,197.851 465.305,197.377 466.704,196.518 468.104,195.522 469.503,193.04 470.903,188.881 472.302,184.08 473.701,179.364 475.101,174.909 476.5,170.063 477.899,164.006 479.299,157.597 480.698,151.529 482.098,144.394 483.497,137.659 484.896,131.182 486.296,124.793 487.695,119.437 489.094,114.101 490.494,109.31 491.893,104.457 493.293,100.022 494.692,96.4597 496.091,93.43 497.491,91.0486 498.89,89.277 500.289,88.1745 501.689,88.1183 503.088,89.0003 504.488,90.8613 505.887,93.4272 507.286,95.1986 508.686,97.8621 510.085,101.756 511.484,105.42 512.884,109.308 514.283,112.38 515.682,114.222 517.082,116.656 518.481,119.819 519.881,122.518 521.28,124.623"/>
<polyline fill="none" stroke="#ff0000" stroke-width="0.5" stroke-linecap="butt" stroke-linejoin="miter" points="86.04,172.307 86.04,38.7777"/>
<polyline fill="none" stroke="#ff0000" stroke-width="0.5" stroke-linecap="butt" stroke-linejoin="miter" points="108.36,172.307 108.36,172.307"/>
<polyline fill="none" stroke="#ff0000" stroke-width="0.5" stroke-linecap="butt" stroke-linejoin="miter" points="130.68,172.307 130.68,38.7777"/>
<polyline fill="none" stroke="#ff0000" stroke-width="0.5" stroke-linecap="butt" stroke-linejoin="miter" points="153,172.307 153,172.307"/>
<polyline fill="none" stroke="#ff0000" stroke-width="0.5" stroke-linecap="butt" stroke-linejoin="miter" points="175.32,172.307 175.32,172.307"/>
<polyline fill="none" stroke="#ff0000" stroke-width="0.5" stroke-linecap="butt" stroke-linejoin="miter" points="197.64,172.307 197.64,172.307"/>
<polyline fill="none" stroke="#ff0000" stroke-width="0.5" stroke-linecap="butt" stroke-linejoin="miter" points="219.96,172.307 219.96,172.307"/>
<polyline fill="none" stroke="#ff0000" stroke-width="0.5" stroke-linecap="butt" stroke-linejoin="miter" points="242.28,172.307 242.28,172.307"/>
<polyline fill="none" stroke="#ff0000" stroke-width="0.5" stroke-linecap="butt" stroke-linejoin="miter" points="264.6,172.307 264.6,172.307"/>
<polyline fill="none" stroke="#ff0000" stroke-width="0.5" stroke-linecap="butt" stroke-linejoin="miter" points="286.92,172.307 286.92,172.307"/>
<polyline fill="none" stroke="#ff0000" stroke-width="0.5" stroke-linecap="butt" stroke-linejoin="miter" points="309.24,172.307 309.24,172.307"/>
<polyline fill="none" stroke="#ff0000" stroke-width="0.5" stroke-linecap="butt" stroke-linejoin="miter" points="331.56,172.307 331.56,172.307"/>
<polyline fill="none" stroke="#ff0000" stroke-width="0.5" stroke-linecap="butt" stroke-linejoin="miter" points="353.88,172.307 353.88,38.7777"/>
<polyline fill="none" stroke="#ff0000" stroke-width="0.5" stroke-linecap="butt" stroke-linejoin="miter" points="376.2,172.307 376.2,38.7777"/>
<polyline fill="none" stroke="#ff0000" stroke-width="0.5" stroke-linecap="butt" stroke-linejoin="miter" points="398.52,172.307 398.52,172.307"/>
<polyline fill="none" stroke="#ff0000" stroke-width="0.5" stroke-linecap="butt" stroke-linejoin="miter" points="420.84,172.307 420.84,38.7777"/>
<polyline fill="none" stroke="#ff0000" stroke-width="0.5" stroke-linecap="butt" stroke-linejoin="miter" points="443.16,172.307 443.16,38.7777"/>
<polyline fill="none" stroke="#ff0000" stroke-width="0.5" stroke-linecap="butt" stroke-linejoin="miter" points="465.48,172.307 465.48,172.307"/>
<polyline fill="none" stroke="#ff0000" stroke-width="0.5" stroke-linecap="butt" stroke-linejoin="miter" points="487.8,172.307 487.8,38.7777"/>
<polyline fill="none" stroke="#ff0000" stroke-width="0.5" stroke-linecap="butt" stroke-linejoin="miter" points="510.12,172.307 510.12,38.7777"/>
<polyline fill="none" stroke="#ff0000" stroke-width="0.5" stroke-linecap="butt" stroke-linejoin="miter" points="89.04,38.7777 88.4671,40.541 86.9671,41.6309 85.113,41.6309 83.613,40.541 83.04,38.7777 83.613,37.0143 85.113,35.9245 86.9671,35.9245 88.4671,37.0143 89.04,38.7777"/>
<polyline fill="none" stroke="#ff0000" stroke-width="0.5" stroke-linecap="butt" stroke-linejoin="miter" points="111.36,172.307 110.787,174.07 109.287,175.16 107.433,175.16 105.933,174.07 105.36,172.307 105.933,170.543 107.433,169.454 109.287,169.454 110.787,170.543 111.36,172.307"/>
<polyline fill="none" stroke="#ff0000" stroke-width="0.5" stroke-linecap="butt" stroke-linejoin="miter" points="133.68,38.7777 133.107,40.541 131.607,41.6309 129.753,41.6309 128.253,40.541 127.68,38.7777 128.253,37.0143 129.753,35.9245 131.607,35.9245 133.107,37.0143 133.68,38.7777"/>
<polyline fill="none" stroke="#ff0000" stroke-width="0.5" stroke-linecap="butt" stroke-linejoin="miter" points="156,172.307 155.427,174.07 153.927,175.16 152.073,175.16 150.573,174.07 150,172.307 150.573,170.543 152.073,169.454 153.927,169.454 155.427,170.543 156,172.307"/>
<polyline fill="none" stroke="#ff0000" stroke-width="0.5" stroke-linecap="butt" stroke-linejoin="miter" points="178.32,172.307 177.747,174.07 176.247,175.16 174.393,175.16 172.893,174.07 172.32,172.307 172.893,170.543 174.393,169.454 176.247,169.454 177.747,170.543 178.32,172.307"/>
<polyline fill="none" stroke="#ff0000" stroke-width="0.5" stroke-linecap="butt" stroke-linejoin="miter" points="200.64,172.307 200.067,174.07 198.567,175.16 196.713,175.16 195.213,174.07 194.64,172.307 195.213,170.543 196.713,169.454 198.567,169.454 200.067,170.543 200.64,172.307"/>
<polyline fill="none" stroke="#ff0000" stroke-width="0.5" stroke-linecap="butt" stroke-linejoin="miter" points="222.96,172.307 222.387,174.07 220.887,175.16 219.033,175.16 217.533,174.07 216.96,172.307 217.533,170.543 219.033,169.454 220.887,169.454 222.387,170.543 222.96,172.307"/>
<polyline fill="none" stroke="#ff0000" stroke-width="0.5" stroke-linecap="butt" stroke-linejoin="miter" points="245.28,172.307 244.707,174.07 243.207,175.16 241.353,175.16 239.853,174.07 239.28,172.307 239.853,170.543 241.353,169.454 243.207,169.454 244.707,170.543 245.28,172.307"/>
<polyline fill="none" stroke="#ff0000" stroke-width="0.5" stroke-linecap="butt" stroke-linejoin="miter" points="267.6,172.307 267.027,174.07 265.527,175.16 263.673,175.16 262.173,174.07 261.6,172.307 262.173,170.543 263.673,169.454 265.527,169.454 267.027,170.543 267.6,172.307"/>
<polyline fill="none" stroke="#ff0000" stroke-width="0.5" stroke-linecap="butt" stroke-linejoin="miter" points="289.92,172.307 289.347,174.07 287.847,175.16 285.993,175.16 284.493,174.07 283.92,172.307 284.493,170.543 285.993,169.454 287.847,169.454 289.347,170.543 289.92,172.307"/>
<polyline fill="none" stroke="#ff0000" stroke-width="0.5" stroke-linecap="butt" stroke-linejoin="miter" points="312.24,172.307 311.667,174.07 310.167,175.16 308.313,175.16 306.813,174.07 306.24,172.307 306.813,170.543 308.313,169.454 310.167,169.454 311.667,170.543 312.24,172.307"/>
<polyline fill="none" stroke="#ff0000" stroke-width="0.5" stroke-linecap="butt" stroke-linejoin="miter" points="334.56,172.307 333.987,174.07 332.487,175.16 330.633,175.16 329.133,174.07 328.56,172.307 329.133,170.543 330.633,169.454 332.487,169.454 333.987,170.543 334.56,172.307"/>
<polyline fill="none" stroke="#ff0000" stroke-width="0.5" stroke-linecap="butt" stroke-linejoin="miter" points="356.88,38.7777 356.307,40.541 354.807,41.6309 352.953,41.6309 351.453,40.541 350.88,38.7777 351.453,37.0143 352.953,35.9245 354.807,35.9245 356.307,37.0143 356.88,38.7777"/>
<polyline fill="none" stroke="#ff0000" stroke-width="0.5" stroke-linecap="butt" stroke-linejoin="miter" points="379.2,38.7777 378.627,40.541 377.127,41.6309 375.273,41.6309 373.773,40.541 373.2,38.7777 373.773,37.0143 375.273,35.9245 377.127,35.9245 378.627,37.0143 379.2,38.7777"/>
<polyline fill="none" stroke="#ff0000" stroke-width="0.5" stroke-linecap="butt" stroke-linejoin="miter" points="401.52,172.307 400.947,174.07 399.447,175.16 397.593,175.16 396.093,174.07 395.52,172.307 396.093,170.543 397.593,169.454 399.447,169.454 400.947,170.543 401.52,172.307"/>
<polyline fill="none" stroke="#ff0000" stroke-width="0.5" stroke-linecap="butt" stroke-linejoin="miter" points="423.84,38.7777 423.267,40.541 421.767,41.6309 419.913,41.6309 418.413,40.541 417.84,38.7777 418.413,37.0143 419.913,35.9245 421.767,35.9245 423.267,37.0143 423.84,38.7777"/>
<polyline fill="none" stroke="#ff0000" stroke-width="0.5" stroke-linecap="butt" stroke-linejoin="miter" points="446.16,38.7777 445.587,40.541 444.087,41.6309 442.233,41.6309 440.733,40.541 440.16,38.7777 440.733,37.0143 442.233,35.9245 444.087,35.9245 445.587,37.0143 446.16,38.7777"/>
<polyline fill="none" stroke="#ff0000" stroke-width="0.5" stroke-linecap="butt" stroke-linejoin="miter" points="468.48,172.307 467.907,174.07 466.407,175.16 464.553,175.16 463.053,174.07 462.48,172.307 463.053,170.543 464.553,169.454 466.407,169.454 467.907,170.543 468.48,172.307"/>
<polyline fill="none" stroke="#ff0000" stroke-width="0.5" stroke-linecap="butt" stroke-linejoin="miter" points="490.8,38.7777 490.227,40.541 488.727,41.6309 486.873,41.6309 485.373,40.541 484.8,38.7777 485.373,37.0143 486.873,35.9245 488.727,35.9245 490.227,37.0143 490.8,38.7777"/>
<polyline fill="none" stroke="#ff0000" stroke-width="0.5" stroke-linecap="butt" stroke-linejoin="miter" points="513.12,38.7777 512.547,40.541 511.047,41.6309 509.193,41.6309 507.693,40.541 507.12,38.7777 507.693,37.0143 509.193,35.9245 511.047,35.9245 512.547,37.0143 513.12,38.7777"/>
<polyline fill="none" stroke="#000000" stroke-width="0.5" stroke-linecap="butt" stroke-linejoin="miter" points="74.88,172.307 521.28,172.307"/>
<text fill="#000000" x="298.08" y="28.7777" font-size="11" text-anchor="middle" dy="0" font-family="Helvetica" font-weight="bold">Posunutie, filtrovanie a zarovnanie</text>
</g>
<clipPath id="cp00576432">
  <polygon points="0,432 576,432 576,0 0,0"/>
</clipPath>
<g clip-path="url(#cp00576432)">
<polygon fill="#ffffff" shape-rendering="crispEdges" points="170.754,429.259 425.406,429.259 170.754,344.237"/>
<polygon fill="#ffffff" shape-rendering="crispEdges" points="425.406,429.259 425.406,344.237 170.754,344.237"/>
<polyline fill="none" stroke="#262626" stroke-width="0.5" stroke-linecap="butt" stroke-linejoin="miter" stroke-dasharray="16,0" points="170.754,429.259 425.406,429.259"/>
<polyline fill="none" stroke="#262626" stroke-width="0.5" stroke-linecap="butt" stroke-linejoin="miter" stroke-dasharray="16,0" points="170.754,344.237 425.406,344.237"/>
<polyline fill="none" stroke="#262626" stroke-width="0.5" stroke-linecap="butt" stroke-linejoin="miter" stroke-dasharray="16,0" points="170.754,429.259 170.754,344.237"/>
<polyline fill="none" stroke="#262626" stroke-width="0.5" stroke-linecap="butt" stroke-linejoin="miter" stroke-dasharray="16,0" points="425.406,429.259 425.406,344.237"/>
<text fill="#000000" x="196.795" y="354.865" font-size="10" text-anchor="start" dy="5" font-family="Helvetica">s[n]</text>
<text fill="#000000" x="407.634" y="356.865" font-size="10" text-anchor="start" dy="0" font-family="Helvetica">ss</text>
<text fill="#000000" x="417.634" y="362.865" font-size="8" text-anchor="start" dy="0" font-family="Helvetica">shifted</text>
<text fill="#000000" x="444.634" y="356.865" font-size="10" text-anchor="start" dy="0" font-family="Helvetica">[n]</text>
<text fill="#000000" x="196.795" y="378.12" font-size="10" text-anchor="start" dy="0" font-family="Helvetica">Zarovnaný ss</text>
<text fill="#000000" x="262.795" y="384.12" font-size="8" text-anchor="start" dy="0" font-family="Helvetica">shifted</text>
<text fill="#000000" x="289.795" y="378.12" font-size="10" text-anchor="start" dy="0" font-family="Helvetica">[n]</text>
<text fill="#000000" x="407.634" y="378.12" font-size="10" text-anchor="start" dy="0" font-family="Helvetica">Symboly zo zarovnaného ss</text>
<text fill="#000000" x="543.634" y="384.12" font-size="8" text-anchor="start" dy="0" font-family="Helvetica">shifted</text>
<text fill="#000000" x="570.634" y="378.12" font-size="10" text-anchor="start" dy="0" font-family="Helvetica">[n]</text>
<polyline fill="none" stroke="#0000ff" stroke-width="0.5" stroke-linecap="butt" stroke-linejoin="miter" points="173.495,354.865 194.054,354.865"/>
<polyline fill="none" stroke="#00ff00" stroke-width="0.5" stroke-linecap="butt" stroke-linejoin="miter" points="384.334,354.865 404.893,354.865"/>
<polyline fill="none" stroke="#ff00ff" stroke-width="0.5" stroke-linecap="butt" stroke-linejoin="miter" points="173.495,376.12 194.054,376.12"/>
<polyline fill="none" stroke="#ff0000" stroke-width="0.5" stroke-linecap="butt" stroke-linejoin="miter" points="397.614,376.12 397.041,377.884 395.541,378.973 393.687,378.973 392.187,377.884 391.614,376.12 392.187,374.357 393.687,373.267 395.541,373.267 397.041,374.357 397.614,376.12"/>
</g>
</g>
</svg>
