<?xml version="1.0" encoding="UTF-8" standalone="no"?>
<svg xmlns="http://www.w3.org/2000/svg"
     xmlns:xlink="http://www.w3.org/1999/xlink"
     width="576px" height="432px" viewBox="0 0 576 432">
<title>gl2ps_renderer figure</title>
<desc>
Creator: GL2PS 1.4.0, (C) 1999-2017 C. Geuzaine
For: Octave
CreationDate: Sun Dec 23 21:32:47 2018
</desc>
<defs>
</defs>
<polygon fill="#ffffff" points="0,0 576,0 576,432 0,432"/>
<g>
<polygon fill="#ffffff" points="0,432 576,432 576,0 0,0" shape-rendering="crispEdges"/>
<clipPath id="cp00576432">
  <polygon points="0,432 576,432 576,0 0,0"/>
</clipPath>
<g clip-path="url(#cp00576432)">
<polygon fill="#ffffff" shape-rendering="crispEdges" points="74.88,384.48 432,384.48 74.88,32.4"/>
<polygon fill="#ffffff" shape-rendering="crispEdges" points="432,384.48 432,32.4 74.88,32.4"/>
<text fill="#000000" x="253.44" y="22.4" font-size="11" text-anchor="middle" dy="0" font-family="Helvetica" font-weight="bold">Časový odhad združenej funkcie hustoty rozdelenia pravdepodobnosti</text>
<polyline fill="none" stroke="#262626" stroke-width="0.5" stroke-linecap="butt" stroke-linejoin="miter" points="82.0224,384.48 82.0224,380.908"/>
<polyline fill="none" stroke="#262626" stroke-width="0.5" stroke-linecap="butt" stroke-linejoin="miter" points="82.0224,32.4 82.0224,35.972"/>
<polyline fill="none" stroke="#262626" stroke-width="0.5" stroke-linecap="butt" stroke-linejoin="miter" points="167.731,384.48 167.731,380.908"/>
<polyline fill="none" stroke="#262626" stroke-width="0.5" stroke-linecap="butt" stroke-linejoin="miter" points="167.731,32.4 167.731,35.972"/>
<polyline fill="none" stroke="#262626" stroke-width="0.5" stroke-linecap="butt" stroke-linejoin="miter" points="253.44,384.48 253.44,380.908"/>
<polyline fill="none" stroke="#262626" stroke-width="0.5" stroke-linecap="butt" stroke-linejoin="miter" points="253.44,32.4 253.44,35.972"/>
<polyline fill="none" stroke="#262626" stroke-width="0.5" stroke-linecap="butt" stroke-linejoin="miter" points="339.149,384.48 339.149,380.908"/>
<polyline fill="none" stroke="#262626" stroke-width="0.5" stroke-linecap="butt" stroke-linejoin="miter" points="339.149,32.4 339.149,35.972"/>
<polyline fill="none" stroke="#262626" stroke-width="0.5" stroke-linecap="butt" stroke-linejoin="miter" points="424.858,384.48 424.858,380.908"/>
<polyline fill="none" stroke="#262626" stroke-width="0.5" stroke-linecap="butt" stroke-linejoin="miter" points="424.858,32.4 424.858,35.972"/>
<polyline fill="none" stroke="#262626" stroke-width="0.5" stroke-linecap="butt" stroke-linejoin="miter" points="74.88,39.4416 78.4524,39.4416"/>
<polyline fill="none" stroke="#262626" stroke-width="0.5" stroke-linecap="butt" stroke-linejoin="miter" points="432,39.4416 428.428,39.4416"/>
<polyline fill="none" stroke="#262626" stroke-width="0.5" stroke-linecap="butt" stroke-linejoin="miter" points="74.88,123.941 78.4524,123.941"/>
<polyline fill="none" stroke="#262626" stroke-width="0.5" stroke-linecap="butt" stroke-linejoin="miter" points="432,123.941 428.428,123.941"/>
<polyline fill="none" stroke="#262626" stroke-width="0.5" stroke-linecap="butt" stroke-linejoin="miter" points="74.88,208.44 78.4524,208.44"/>
<polyline fill="none" stroke="#262626" stroke-width="0.5" stroke-linecap="butt" stroke-linejoin="miter" points="432,208.44 428.428,208.44"/>
<polyline fill="none" stroke="#262626" stroke-width="0.5" stroke-linecap="butt" stroke-linejoin="miter" points="74.88,292.939 78.4524,292.939"/>
<polyline fill="none" stroke="#262626" stroke-width="0.5" stroke-linecap="butt" stroke-linejoin="miter" points="432,292.939 428.428,292.939"/>
<polyline fill="none" stroke="#262626" stroke-width="0.5" stroke-linecap="butt" stroke-linejoin="miter" points="74.88,377.438 78.4524,377.438"/>
<polyline fill="none" stroke="#262626" stroke-width="0.5" stroke-linecap="butt" stroke-linejoin="miter" points="432,377.438 428.428,377.438"/>
<polyline fill="none" stroke="#262626" stroke-width="0.5" stroke-linecap="butt" stroke-linejoin="miter" stroke-dasharray="16,0" points="74.88,384.48 432,384.48"/>
<polyline fill="none" stroke="#262626" stroke-width="0.5" stroke-linecap="butt" stroke-linejoin="miter" stroke-dasharray="16,0" points="74.88,32.4 432,32.4"/>
<polyline fill="none" stroke="#262626" stroke-width="0.5" stroke-linecap="butt" stroke-linejoin="miter" stroke-dasharray="16,0" points="74.88,384.48 74.88,32.4"/>
<polyline fill="none" stroke="#262626" stroke-width="0.5" stroke-linecap="butt" stroke-linejoin="miter" stroke-dasharray="16,0" points="432,384.48 432,32.4"/>
<text fill="#262626" x="82.0224" y="389.481" font-size="10" text-anchor="middle" dy="10" font-family="Helvetica">-1</text>
<text fill="#262626" x="167.731" y="389.481" font-size="10" text-anchor="middle" dy="10" font-family="Helvetica">-0.5</text>
<text fill="#262626" x="253.44" y="389.481" font-size="10" text-anchor="middle" dy="10" font-family="Helvetica">0</text>
<text fill="#262626" x="339.149" y="389.481" font-size="10" text-anchor="middle" dy="10" font-family="Helvetica">0.5</text>
<text fill="#262626" x="424.858" y="389.481" font-size="10" text-anchor="middle" dy="10" font-family="Helvetica">1</text>
<text fill="#262626" x="69.8783" y="39.4416" font-size="10" text-anchor="end" dy="5" font-family="Helvetica">-1</text>
<text fill="#262626" x="69.8783" y="123.941" font-size="10" text-anchor="end" dy="5" font-family="Helvetica">-0.5</text>
<text fill="#262626" x="69.8783" y="208.44" font-size="10" text-anchor="end" dy="5" font-family="Helvetica">0</text>
<text fill="#262626" x="69.8783" y="292.939" font-size="10" text-anchor="end" dy="5" font-family="Helvetica">0.5</text>
<text fill="#262626" x="69.8783" y="377.438" font-size="10" text-anchor="end" dy="5" font-family="Helvetica">1</text>
</g>
<clipPath id="cp00576432">
  <polygon points="0,432 576,432 576,0 0,0"/>
</clipPath>
<g clip-path="url(#cp00576432)">
<polygon fill="#ffffff" shape-rendering="crispEdges" points="503.424,384.48 476.64,384.48 503.424,32.4"/>
<polygon fill="#ffffff" shape-rendering="crispEdges" points="476.64,384.48 476.64,32.4 503.424,32.4"/>
<polyline fill="none" stroke="#262626" stroke-width="0.5" stroke-linecap="butt" stroke-linejoin="miter" points="503.424,384.48 499.931,384.48"/>
<polyline fill="none" stroke="#262626" stroke-width="0.5" stroke-linecap="butt" stroke-linejoin="miter" points="476.64,384.48 480.133,384.48"/>
<polyline fill="none" stroke="#262626" stroke-width="0.5" stroke-linecap="butt" stroke-linejoin="miter" points="503.424,300.893 499.931,300.893"/>
<polyline fill="none" stroke="#262626" stroke-width="0.5" stroke-linecap="butt" stroke-linejoin="miter" points="476.64,300.893 480.133,300.893"/>
<polyline fill="none" stroke="#262626" stroke-width="0.5" stroke-linecap="butt" stroke-linejoin="miter" points="503.424,217.306 499.931,217.306"/>
<polyline fill="none" stroke="#262626" stroke-width="0.5" stroke-linecap="butt" stroke-linejoin="miter" points="476.64,217.306 480.133,217.306"/>
<polyline fill="none" stroke="#262626" stroke-width="0.5" stroke-linecap="butt" stroke-linejoin="miter" points="503.424,133.719 499.931,133.719"/>
<polyline fill="none" stroke="#262626" stroke-width="0.5" stroke-linecap="butt" stroke-linejoin="miter" points="476.64,133.719 480.133,133.719"/>
<polyline fill="none" stroke="#262626" stroke-width="0.5" stroke-linecap="butt" stroke-linejoin="miter" points="503.424,50.1315 499.931,50.1315"/>
<polyline fill="none" stroke="#262626" stroke-width="0.5" stroke-linecap="butt" stroke-linejoin="miter" points="476.64,50.1315 480.133,50.1315"/>
<polyline fill="none" stroke="#262626" stroke-width="0.5" stroke-linecap="butt" stroke-linejoin="miter" stroke-dasharray="16,0" points="503.424,384.48 476.64,384.48"/>
<polyline fill="none" stroke="#262626" stroke-width="0.5" stroke-linecap="butt" stroke-linejoin="miter" stroke-dasharray="16,0" points="503.424,32.4 476.64,32.4"/>
<polyline fill="none" stroke="#262626" stroke-width="0.5" stroke-linecap="butt" stroke-linejoin="miter" stroke-dasharray="16,0" points="503.424,384.48 503.424,32.4"/>
<polyline fill="none" stroke="#262626" stroke-width="0.5" stroke-linecap="butt" stroke-linejoin="miter" stroke-dasharray="16,0" points="476.64,384.48 476.64,32.4"/>
<text fill="#262626" x="508.384" y="384.48" font-size="10" text-anchor="start" dy="5" font-family="Helvetica">0</text>
<text fill="#262626" x="508.384" y="300.893" font-size="10" text-anchor="start" dy="5" font-family="Helvetica">0.5</text>
<text fill="#262626" x="508.384" y="217.306" font-size="10" text-anchor="start" dy="5" font-family="Helvetica">1</text>
<text fill="#262626" x="508.384" y="133.719" font-size="10" text-anchor="start" dy="5" font-family="Helvetica">1.5</text>
<text fill="#262626" x="508.384" y="50.1315" font-size="10" text-anchor="start" dy="5" font-family="Helvetica">2</text>
</g>
</g>
</svg>
